# xmcd
#
# Track frame offsets:
#	150
#	25394
#	47125
#	73917
#	100965
#	121582
#	138627
#	160824
#	180860
#	203172
#	220949
#	239991
#
# Disc length: 3474 seconds
#
# Revision: 0
# Processed by: cddbd v1.5.2PL0 Copyright (c) Steve Scherf et al.
# Submitted via: FairStars CD Ripper 1.90
#
DISCID=b10d900c
DTITLE=Chris Washburne - Rags and Roots
DYEAR=2017
DGENRE=Blues
TTITLE0=MAPLE LEAF RAG
TTITLE1=ST. LOUIS BLUES/THE PEANUT VENDOR
TTITLE2=BAMBOULA
TTITLE3=HERE'S ONE
TTITLE4=SOLACE (A Mexican Serenade) 
TTITLE5=ODEON 
TTITLE6=PICTURE OF HER FACE 
TTITLE7=MILDLY ENTERTAINED
TTITLE8=ALA COTE GEN FANM
TTITLE9=LISETTE P.D. 
TTITLE10=CREOLE BELLES 
TTITLE11=STRANGE FRUIT 
EXTD=
EXTT0=
EXTT1=
EXTT2=
EXTT3=
EXTT4=
EXTT5=
EXTT6=
EXTT7=
EXTT8=
EXTT9=
EXTT10=
EXTT11=
PLAYORDER=
